<?xml version="1.0" standalone="no"?>
<!DOCTYPE svg PUBLIC "-//W3C//DTD SVG 20010904//EN" "http://www.w3.org/TR/2001/REC-SVG-20010904/DTD/svg10.dtd">
<svg xmlns="http://www.w3.org/2000/svg" version="1.0" width="300" height="300" viewBox="0 0 300.000000 300.000000" preserveAspectRatio="xMidYMid meet">
<metadata>
Created by potrace 1.10, written by Peter Selinger 2001-2011
</metadata>
<g transform="translate(0.000000,300.000000) scale(0.100000,-0.100000)" fill="#000000" stroke="none">
<path d="M501 2576 c-10 -12 22 -64 170 -275 l182 -261 268 -257 c148 -142 275 -258 284 -258 8 0 130 128 271 285 l257 285 151 94 c375 234 466 289 466 283 0 -3 -11 -17 -24 -31 -13 -15 -110 -141 -216 -281 l-192 -255 -272 -227 c-262 -220 -279 -237 -503 -488 -128 -144 -233 -269 -233 -278 0 -9 32 -100 71 -202 l71 -187 151 -7 c145 -6 153 -5 167 14 16 21 16 21 40 -5 13 -14 29 -24 36 -21 6 2 72 10 147 17 74 6 140 15 145 18 10 6 112 339 112 366 0 9 -80 113 -177 231 -166 201 -213 244 -213 198 0 -9 72 -102 159 -209 88 -106 165 -201 171 -211 10 -16 4 -47 -33 -173 -25 -84 -48 -155 -51 -158 -2 -3 -60 -11 -128 -18 -111 -12 -125 -11 -140 4 -16 15 -15 19 33 75 68 80 62 86 -97 86 -121 0 -124 0 -124 -22 0 -14 21 -43 52 -75 36 -37 49 -56 42 -63 -7 -7 -58 -10 -134 -8 l-123 3 -63 165 c-35 91 -63 170 -62 177 2 6 105 125 230 265 216 241 239 264 495 478 l268 224 249 330 c137 182 252 341 254 354 4 20 1 23 -18 20 -12 -1 -182 -102 -378 -222 l-357 -220 -210 -233 c-115 -128 -229 -254 -251 -280 l-42 -47 -260 253 c-231 224 -271 268 -348 379 -48 70 -112 160 -142 200 -29 41 -52 75 -50 77 2 1 94 -50 205 -114 188 -107 221 -131 449 -319 230 -191 279 -222 279 -182 0 7 -113 107 -251 221 -249 205 -254 208 -509 353 -142 80 -259 146 -260 146 -2 0 -8 -6 -14 -14z m1113 -1927 l-28 -29 -28 27 c-15 15 -28 29 -28 32 0 3 25 4 56 3 l56 -4 -28 -29z"/>
</g>
</svg>