<svg width="404" height="119" viewBox="0 0 404 119" fill="none" xmlns="http://www.w3.org/2000/svg">
<g filter="url(#filter0_d_1963_4541)">
<rect width="398.361" height="91.5565" rx="45.7782" fill="#AE80F9"/>
<path d="M50.7623 113.822C59.8053 106.176 50.3567 89.1957 54.6186 88.5477L79.0449 91.1709L50.7623 113.822Z" fill="#AE80F9"/>
<path d="M72.5185 50.6784C71.2225 50.6784 70.3059 49.8092 70.3059 48.5607C70.3059 47.3122 71.2225 46.4429 72.5185 46.4429H74.8417L75.5055 42.9028H73.6722C72.3762 42.9028 71.4596 42.0336 71.4596 40.7851C71.4596 39.5365 72.3762 38.6673 73.6722 38.6673H76.2957L77.0385 34.7163C77.2597 33.5942 78.0657 32.883 79.1088 32.883C80.3731 32.883 81.2582 33.768 81.2582 35.0166C81.2582 35.2062 81.2423 35.3801 81.2107 35.5539L80.626 38.6673H84.2767L85.0195 34.7163C85.225 33.5942 86.0468 32.883 87.0899 32.883C88.3384 32.883 89.2234 33.768 89.2234 35.0166C89.2234 35.2062 89.2076 35.3801 89.176 35.5539L88.5913 38.6673H90.3297C91.6256 38.6673 92.5423 39.5365 92.5423 40.7851C92.5423 42.0336 91.6256 42.9028 90.3297 42.9028H87.801L87.1373 46.4429H89.176C90.4719 46.4429 91.3886 47.3122 91.3886 48.5607C91.3886 49.8092 90.4719 50.6784 89.176 50.6784H86.3471L85.6043 54.6611C85.3988 55.7832 84.5928 56.4943 83.5497 56.4943C82.2854 56.4943 81.3846 55.5777 81.3846 54.345C81.3846 54.1553 81.4162 53.9815 81.432 53.8234L82.0167 50.6784H78.3818L77.639 54.6611C77.4178 55.7832 76.6117 56.4943 75.5687 56.4943C74.3201 56.4943 73.4193 55.5777 73.4193 54.345C73.4193 54.1553 73.4351 53.9815 73.4667 53.8234L74.0515 50.6784H72.5185ZM79.172 46.4429H82.8228L83.4865 42.9028H79.8358L79.172 46.4429ZM101.898 56.5418C99.0378 56.5418 96.4459 55.5935 95.1342 54.0921C94.5178 53.46 94.1227 52.6381 94.1227 51.8321C94.1227 50.7258 94.8655 49.9672 96.0034 49.9672C96.7304 49.9672 97.2835 50.2359 98.1369 50.9629C99.4645 52.1324 100.65 52.6065 102.135 52.6065C103.558 52.6065 104.395 52.085 104.395 51.1367C104.395 50.2359 103.826 49.6986 102.53 49.4299L99.9228 48.8768C96.5407 48.1498 94.739 46.3323 94.739 43.7088C94.739 40.3109 97.4574 38.209 101.756 38.209C104.016 38.209 106.102 38.7779 107.414 39.7578C108.41 40.5006 108.979 41.4488 108.979 42.4603C108.979 43.5034 108.188 44.2778 107.129 44.2778C106.355 44.2778 105.691 43.8511 104.822 43.1873C103.779 42.3339 102.736 42.002 101.661 42.002C100.413 42.002 99.6225 42.5077 99.6225 43.3611C99.6225 44.1671 100.255 44.6887 101.503 44.9415L104.316 45.5421C107.683 46.2849 109.31 47.9601 109.31 50.6784C109.31 54.3292 106.481 56.5418 101.898 56.5418ZM128.465 38.3038C129.856 38.3038 130.836 39.3311 130.836 40.7693V53.9815C130.836 55.4355 129.856 56.4469 128.465 56.4469C127.232 56.4469 126.331 55.6567 126.142 54.4872C125.067 55.8148 123.265 56.5418 121.179 56.5418C116.928 56.5418 114.036 53.8709 114.036 49.1138V40.7693C114.036 39.3469 115.032 38.3038 116.406 38.3038C117.813 38.3038 118.777 39.3785 118.777 40.7693V48.371C118.777 50.9313 120.12 52.243 122.301 52.243C124.64 52.243 126.094 50.631 126.094 48.213V40.7693C126.094 39.3153 127.074 38.3038 128.465 38.3038ZM144.411 56.5418C139.196 56.5418 135.308 52.7488 135.308 47.3754C135.308 42.002 139.196 38.209 144.411 38.209C147.367 38.209 149.516 39.1098 150.844 40.4848C151.808 41.4804 152.282 42.6183 152.282 43.5192C152.282 44.6729 151.46 45.5421 150.306 45.5421C149.326 45.5421 148.694 45.1312 147.999 44.3252C147.209 43.2347 146.023 42.5551 144.554 42.5551C142.072 42.5551 140.176 44.5148 140.176 47.3754C140.176 50.2359 142.072 52.1956 144.554 52.1956C146.292 52.1956 147.367 51.3738 148.125 50.2359C148.742 49.4299 149.311 49.0822 150.243 49.0822C151.365 49.0822 152.329 49.9514 152.329 51.1367C152.329 52.006 151.823 53.1597 150.875 54.1395C149.516 55.5619 147.193 56.5418 144.411 56.5418ZM164.388 56.5418C159.172 56.5418 155.285 52.7488 155.285 47.3754C155.285 42.002 159.172 38.209 164.388 38.209C167.343 38.209 169.492 39.1098 170.82 40.4848C171.784 41.4804 172.258 42.6183 172.258 43.5192C172.258 44.6729 171.436 45.5421 170.283 45.5421C169.303 45.5421 168.671 45.1312 167.975 44.3252C167.185 43.2347 166 42.5551 164.53 42.5551C162.049 42.5551 160.152 44.5148 160.152 47.3754C160.152 50.2359 162.049 52.1956 164.53 52.1956C166.268 52.1956 167.343 51.3738 168.102 50.2359C168.718 49.4299 169.287 49.0822 170.219 49.0822C171.342 49.0822 172.306 49.9514 172.306 51.1367C172.306 52.006 171.8 53.1597 170.852 54.1395C169.492 55.5619 167.169 56.5418 164.388 56.5418ZM184.759 56.5418C179.022 56.5418 175.261 52.97 175.261 47.3912C175.261 41.9862 178.959 38.209 184.206 38.209C189.295 38.209 192.693 41.5753 192.693 46.2217C192.693 48.0549 191.903 48.8768 190.227 48.8768H180.002C180.334 50.9471 182.278 52.2114 184.98 52.2114C186.529 52.2114 187.636 51.8005 188.505 50.9629C189.153 50.5362 189.738 50.2359 190.512 50.2359C191.729 50.2359 192.282 50.9471 192.282 52.1008C192.282 52.6539 192.013 53.2545 191.65 53.7444C190.37 55.5461 187.588 56.5418 184.759 56.5418ZM180.002 45.2418H188.015C187.746 43.1715 186.245 41.9388 184.016 41.9388C181.772 41.9388 180.271 43.2189 180.002 45.2418ZM203.803 56.5418C200.943 56.5418 198.351 55.5935 197.039 54.0921C196.423 53.46 196.028 52.6381 196.028 51.8321C196.028 50.7258 196.77 49.9672 197.908 49.9672C198.635 49.9672 199.188 50.2359 200.042 50.9629C201.369 52.1324 202.555 52.6065 204.04 52.6065C205.463 52.6065 206.3 52.085 206.3 51.1367C206.3 50.2359 205.731 49.6986 204.435 49.4299L201.828 48.8768C198.446 48.1498 196.644 46.3323 196.644 43.7088C196.644 40.3109 199.362 38.209 203.661 38.209C205.921 38.209 208.007 38.7779 209.319 39.7578C210.314 40.5006 210.883 41.4488 210.883 42.4603C210.883 43.5034 210.093 44.2778 209.034 44.2778C208.26 44.2778 207.596 43.8511 206.727 43.1873C205.684 42.3339 204.641 42.002 203.566 42.002C202.318 42.002 201.527 42.5077 201.527 43.3611C201.527 44.1671 202.16 44.6887 203.408 44.9415L206.221 45.5421C209.587 46.2849 211.215 47.9601 211.215 50.6784C211.215 54.3292 208.386 56.5418 203.803 56.5418ZM222.8 56.5418C219.939 56.5418 217.347 55.5935 216.036 54.0921C215.419 53.46 215.024 52.6381 215.024 51.8321C215.024 50.7258 215.767 49.9672 216.905 49.9672C217.632 49.9672 218.185 50.2359 219.038 50.9629C220.366 52.1324 221.551 52.6065 223.037 52.6065C224.459 52.6065 225.297 52.085 225.297 51.1367C225.297 50.2359 224.728 49.6986 223.432 49.4299L220.824 48.8768C217.442 48.1498 215.64 46.3323 215.64 43.7088C215.64 40.3109 218.359 38.209 222.657 38.209C224.917 38.209 227.004 38.7779 228.315 39.7578C229.311 40.5006 229.88 41.4488 229.88 42.4603C229.88 43.5034 229.09 44.2778 228.031 44.2778C227.256 44.2778 226.593 43.8511 225.723 43.1873C224.68 42.3339 223.637 42.002 222.563 42.002C221.314 42.002 220.524 42.5077 220.524 43.3611C220.524 44.1671 221.156 44.6887 222.405 44.9415L225.218 45.5421C228.584 46.2849 230.212 47.9601 230.212 50.6784C230.212 54.3292 227.383 56.5418 222.8 56.5418ZM241.796 56.5418C238.936 56.5418 236.344 55.5935 235.032 54.0921C234.416 53.46 234.021 52.6381 234.021 51.8321C234.021 50.7258 234.763 49.9672 235.901 49.9672C236.628 49.9672 237.181 50.2359 238.035 50.9629C239.362 52.1324 240.548 52.6065 242.033 52.6065C243.456 52.6065 244.293 52.085 244.293 51.1367C244.293 50.2359 243.724 49.6986 242.428 49.4299L239.821 48.8768C236.439 48.1498 234.637 46.3323 234.637 43.7088C234.637 40.3109 237.355 38.209 241.654 38.209C243.914 38.209 246 38.7779 247.312 39.7578C248.308 40.5006 248.876 41.4488 248.876 42.4603C248.876 43.5034 248.086 44.2778 247.027 44.2778C246.253 44.2778 245.589 43.8511 244.72 43.1873C243.677 42.3339 242.634 42.002 241.559 42.002C240.311 42.002 239.52 42.5077 239.52 43.3611C239.52 44.1671 240.153 44.6887 241.401 44.9415L244.214 45.5421C247.581 46.2849 249.208 47.9601 249.208 50.6784C249.208 54.3292 246.379 56.5418 241.796 56.5418ZM261.188 56.5418C257.948 56.5418 255.609 54.345 255.609 50.9629V42.9344H253.871C252.575 42.9344 251.658 42.0494 251.658 40.8009C251.658 39.5523 252.575 38.6831 253.871 38.6831H255.609V35.9332C255.609 34.4792 256.589 33.4678 257.98 33.4678C259.386 33.4678 260.35 34.4792 260.35 35.9332V38.6831H264.238C265.534 38.6831 266.451 39.5523 266.451 40.8009C266.451 42.0494 265.534 42.9344 264.238 42.9344H260.35V50.2517C260.35 51.5318 260.919 52.0534 261.836 52.0534C262.452 52.0534 262.942 51.7215 263.479 51.3106C263.827 51.0419 264.333 50.71 265.091 50.71C266.166 50.71 266.909 51.4844 266.909 52.5907C266.909 53.4283 266.561 54.2502 265.818 54.9297C264.728 55.9254 262.974 56.5418 261.188 56.5418ZM278.873 56.5418C273.436 56.5418 269.517 52.9384 269.517 47.3754C269.517 41.8123 273.436 38.209 278.873 38.209C284.325 38.209 288.244 41.8123 288.244 47.3754C288.244 52.9384 284.325 56.5418 278.873 56.5418ZM274.384 47.3754C274.384 50.2359 276.249 52.1956 278.873 52.1956C281.512 52.1956 283.377 50.2359 283.377 47.3754C283.377 44.5148 281.512 42.5551 278.873 42.5551C276.249 42.5551 274.384 44.5148 274.384 47.3754ZM297.442 46.759V53.9815C297.442 55.4355 296.478 56.4469 295.088 56.4469C293.697 56.4469 292.717 55.4197 292.717 53.9815V40.7693C292.717 39.3153 293.697 38.3038 295.088 38.3038C296.305 38.3038 297.19 39.0782 297.395 40.2477C298.422 38.8886 299.987 38.209 301.725 38.209C303.1 38.209 304.207 38.6831 304.918 39.3627C305.755 40.1213 306.166 41.1169 306.166 42.1758C306.166 43.7562 305.297 44.8309 303.733 44.8309C302.895 44.8309 302.247 44.2778 301.868 43.7878C301.409 43.2189 300.825 42.7606 300.019 42.7606C298.723 42.7606 297.442 43.9301 297.442 46.759ZM310.133 42.7132C309.659 41.6859 309.454 40.9115 309.454 40.3742C309.454 39.1098 310.339 38.2248 311.745 38.2248C313.183 38.2248 313.784 38.9834 314.432 40.548L318.193 48.8768L321.733 40.6744C322.492 38.8728 323.156 38.2248 324.483 38.2248C325.795 38.2248 326.791 39.1098 326.791 40.2635C326.791 40.8957 326.569 41.7175 326.159 42.6341L320.137 55.8622C318.762 58.8808 316.802 60.3189 313.847 60.3189C312.267 60.3189 311.097 59.9554 310.007 59.102C309.343 58.5963 308.948 57.8061 308.948 57.0475C308.948 55.8148 309.785 54.7717 310.908 54.7717C311.192 54.7717 311.587 54.8823 311.903 55.1036C312.425 55.5777 313.089 55.8464 313.642 55.8464C314.448 55.8464 315.143 55.4039 315.696 54.5188L310.133 42.7132Z" fill="#050505"/>
</g>
<defs>
<filter id="filter0_d_1963_4541" x="0" y="0" width="403.341" height="118.801" filterUnits="userSpaceOnUse" color-interpolation-filters="sRGB">
<feFlood flood-opacity="0" result="BackgroundImageFix"/>
<feColorMatrix in="SourceAlpha" type="matrix" values="0 0 0 0 0 0 0 0 0 0 0 0 0 0 0 0 0 0 127 0" result="hardAlpha"/>
<feOffset dx="4.97951" dy="4.97951"/>
<feColorMatrix type="matrix" values="0 0 0 0 0.02 0 0 0 0 0.02 0 0 0 0 0.02 0 0 0 1 0"/>
<feBlend mode="normal" in2="BackgroundImageFix" result="effect1_dropShadow_1963_4541"/>
<feBlend mode="normal" in="SourceGraphic" in2="effect1_dropShadow_1963_4541" result="shape"/>
</filter>
</defs>
</svg>
