<?xml version="1.0" encoding="UTF-8"?>
<svg id="a" data-name="Layer_1" xmlns="http://www.w3.org/2000/svg" viewBox="0 0 214.29 214.29">
  <defs>
    <style>
      .b {
        fill: #2f284f;
      }

      .c {
        fill: #ffd400;
      }
    </style>
  </defs>
  <path class="c" d="M185.41,25.68c-.77-.49-1.81-.49-2.58,0l-41.52,26.74c-.25.16-.46.37-.62.61-3.99,6.28-8.19,12.54-12.48,18.64-9.27,13.18-19.37,26.13-30.03,38.52-.2.24-.6.25-.83.04l-43.08-39.84c-.05-.05-.09-.11-.12-.17l-14.12-36.23c-.17-.44.4-.82.83-.54l33.94,21.79c.06.04.11.09.15.14l23.41,34.74c.2.3.69.32.91.03.69-.88,1.38-1.76,2.06-2.63.12-.15.13-.35.02-.51l-22.93-34.01c-.15-.23-.35-.42-.59-.58l-41.4-26.57c-.77-.5-1.82-.5-2.59,0s-1.08,1.38-.77,2.17l17.14,43.95c.1.26.27.5.48.7l45.7,42.26c.44.41,1.05.63,1.7.6.64-.03,1.23-.31,1.62-.75,11.47-13.17,22.31-26.99,32.22-41.07,4.22-6,8.35-12.17,12.29-18.33.04-.06.09-.11.15-.15l34.17-22c.43-.27,1,.09.84.53l-13.7,36.55c-.02.06-.06.12-.12.17l-14.89,14.19c-15.31,13.84-30.74,27.94-45.88,41.89-11.42,10.53-22.98,21.26-34.36,31.91-.57.54-.75,1.31-.46,2l11.47,27.25c.32.76,1.14,1.26,2.06,1.26h22.77c.71,0,1.4-.25,1.9-.69l1.23-1.07c.21-.18.54-.18.76,0l1.45,1.23c.4.35.95.54,1.52.54h23.36c.91,0,1.74-.5,2.05-1.26l11.33-27.25c.28-.68.1-1.44-.46-1.97l-28-26.45c-.44-.41-1.17-.41-1.61,0s-1.02.95-1.49,1.39c-.4.37-.41.96,0,1.34l26.76,25.27c.14.13.18.32.11.49l-10.09,24.28c-.08.19-.28.31-.51.31h-20.35c-.14,0-.28-.05-.38-.14l-.53-.46c-.22-.19-.22-.5,0-.68l8.01-6.89c.63-.55.83-1.38.49-2.1-.33-.73-1.14-1.21-2.02-1.21h-.01l-20.16.02c-.9,0-1.7.48-2.03,1.21-.34.72-.13,1.56.51,2.1l8.12,6.89c.22.19.22.5,0,.68l-.48.42c-.1.09-.24.14-.38.14h-19.97c-.23,0-.43-.12-.51-.31l-10.23-24.28c-.07-.17-.03-.36.11-.49,11.01-10.28,22.16-20.64,33.19-30.81,15.12-13.94,30.55-28.02,45.88-41.89l15.33-14.62c.22-.2.38-.44.47-.7l16.56-44.16c.3-.8-.02-1.67-.79-2.17ZM106.38,177.51h6.71c.49,0,.73.51.38.81l-3.33,2.87c-.21.18-.54.18-.76,0l-3.37-2.86c-.35-.3-.11-.82.38-.82Z"/>
  <path class="c" d="M101.12,87.43c-.89.93-1.79,1.85-2.68,2.78-16.13-9.17-32.26-18.33-48.38-27.5-4.42-11.13-8.85-22.26-13.27-33.39,13.27,8.13,26.54,16.26,39.81,24.39,8.17,11.24,16.35,22.48,24.52,33.72Z"/>
  <path class="c" d="M99.2,115.18c24.4-19.43,48.8-38.86,73.21-58.29,3.49-9.2,6.98-18.4,10.48-27.61-13.54,8.12-27.09,16.24-40.63,24.36-14.35,20.51-28.7,41.02-43.05,61.53Z"/>
  <path class="b" d="M185.41,25.68c-.77-.49-1.81-.49-2.58,0l-41.52,26.74c-.25.16-.46.37-.62.61-3.99,6.28-8.19,12.54-12.48,18.64-9.27,13.18-19.37,26.13-30.03,38.52-.2.24-.6.25-.83.04l-43.08-39.84c-.05-.05-.09-.11-.12-.17l-14.12-36.23c-.17-.44.4-.82.83-.54l33.94,21.79c.06.04.11.09.15.14l23.41,34.74c.2.3.69.32.91.03.69-.88,1.38-1.76,2.06-2.63.12-.15.13-.35.02-.51l-22.93-34.01c-.15-.23-.35-.42-.59-.58l-41.4-26.57c-.77-.5-1.82-.5-2.59,0s-1.08,1.38-.77,2.17l17.14,43.95c.1.26.27.5.48.7l45.7,42.26c.44.41,1.05.63,1.7.6.64-.03,1.23-.31,1.62-.75,11.47-13.17,22.31-26.99,32.22-41.07,4.22-6,8.35-12.17,12.29-18.33.04-.06.09-.11.15-.15l34.17-22c.43-.27,1,.09.84.53l-13.7,36.55c-.02.06-.06.12-.12.17l-14.89,14.19c-15.31,13.84-30.74,27.94-45.88,41.89-11.42,10.53-22.98,21.26-34.36,31.91-.57.54-.75,1.31-.46,2l11.47,27.25c.32.76,1.14,1.26,2.06,1.26h22.77c.71,0,1.4-.25,1.9-.69l1.23-1.07c.21-.18.54-.18.76,0l1.45,1.23c.4.35.95.54,1.52.54h23.36c.91,0,1.74-.5,2.05-1.26l11.33-27.25c.28-.68.1-1.44-.46-1.97l-28-26.45c-.44-.41-1.17-.41-1.61,0s-1.02.95-1.49,1.39c-.4.37-.41.96,0,1.34l26.76,25.27c.14.13.18.32.11.49l-10.09,24.28c-.08.19-.28.31-.51.31h-20.35c-.14,0-.28-.05-.38-.14l-.53-.46c-.22-.19-.22-.5,0-.68l8.01-6.89c.63-.55.83-1.38.49-2.1-.33-.73-1.14-1.21-2.02-1.21h-.01l-20.16.02c-.9,0-1.7.48-2.03,1.21-.34.72-.13,1.56.51,2.1l8.12,6.89c.22.19.22.5,0,.68l-.48.42c-.1.09-.24.14-.38.14h-19.97c-.23,0-.43-.12-.51-.31l-10.23-24.28c-.07-.17-.03-.36.11-.49,11.01-10.28,22.16-20.64,33.19-30.81,15.12-13.94,30.55-28.02,45.88-41.89l15.33-14.62c.22-.2.38-.44.47-.7l16.56-44.16c.3-.8-.02-1.67-.79-2.17ZM106.38,177.51h6.71c.49,0,.73.51.38.81l-3.33,2.87c-.21.18-.54.18-.76,0l-3.37-2.86c-.35-.3-.11-.82.38-.82Z"/>
</svg>