<?xml version="1.0" standalone="no"?>
<!DOCTYPE svg PUBLIC "-//W3C//DTD SVG 20010904//EN"
 "http://www.w3.org/TR/2001/REC-SVG-20010904/DTD/svg10.dtd">
<svg version="1.0" xmlns="http://www.w3.org/2000/svg"
 width="446.000000pt" height="233.000000pt" viewBox="0 0 446.000000 233.000000"
 preserveAspectRatio="xMidYMid meet">
<metadata>
Created by potrace 1.10, written by Peter Selinger 2001-2011
</metadata>
<g transform="translate(0.000000,233.000000) scale(0.100000,-0.100000)"
fill="#000000" stroke="none">
<path d="M1892 2002 c3 -10 58 -96 123 -191 110 -159 131 -184 323 -372 l205
-201 91 93 c50 52 142 149 204 216 111 120 117 125 342 268 126 80 231 145
234 145 4 0 -69 -100 -161 -223 -166 -221 -170 -225 -348 -380 -99 -85 -206
-180 -237 -209 -63 -59 -257 -272 -302 -331 l-29 -37 48 -128 c26 -70 54 -133
63 -139 20 -16 203 -18 219 -2 8 8 18 6 36 -6 23 -15 38 -15 133 -6 59 6 108
12 110 13 5 6 74 253 74 266 0 14 -206 267 -254 311 -56 52 -20 -1 103 -153
l129 -158 -24 -92 c-45 -167 -35 -154 -112 -161 -37 -3 -82 -7 -99 -10 -21 -2
-39 2 -48 12 -14 13 -12 19 20 54 19 21 35 44 35 49 0 6 -37 10 -90 10 -49 0
-90 -3 -90 -6 0 -4 16 -24 35 -45 58 -64 51 -70 -67 -67 l-102 3 -48 129 -47
129 123 136 c156 172 283 294 464 446 138 116 148 127 311 345 200 269 214
287 209 300 -3 9 -164 -88 -436 -262 -93 -60 -120 -85 -288 -269 -103 -112
-191 -206 -196 -208 -6 -2 -103 90 -217 205 -176 179 -220 229 -299 347 -51
75 -89 137 -86 137 4 0 72 -37 152 -82 105 -61 196 -124 335 -235 174 -139
232 -180 197 -138 -7 9 -88 77 -179 153 -159 131 -225 174 -505 331 -51 29
-58 30 -54 13z m848 -1385 c0 -2 -13 -15 -28 -30 l-28 -27 -29 30 -29 30 57 0
c31 0 57 -1 57 -3z"/>
<path d="M302 860 l3 -351 205 0 205 0 3 30 3 31 -165 0 -166 0 0 320 0 320
-45 0 -45 0 2 -350z"/>
<path d="M802 938 c3 -259 4 -275 25 -314 46 -87 121 -128 233 -129 87 0 149
25 198 80 58 66 62 91 62 379 l0 256 -39 0 -40 0 -3 -262 c-3 -227 -5 -267
-20 -295 -28 -51 -74 -77 -143 -81 -79 -4 -140 25 -169 83 -19 37 -21 61 -24
298 l-3 257 -40 0 -40 0 3 -272z"/>
<path d="M1470 860 l0 -350 40 0 40 0 2 273 3 272 115 -220 c115 -219 115
-220 150 -223 l35 -3 115 222 115 221 3 -270 2 -270 41 -4 c22 -2 42 -2 45 1
2 2 4 161 4 353 l0 348 -54 0 -53 0 -123 -240 c-67 -132 -125 -240 -128 -240
-4 0 -62 108 -130 240 l-123 240 -50 0 -49 0 0 -350z"/>
<path d="M3130 862 l0 -350 41 -4 c22 -2 42 -2 45 1 2 2 4 69 4 148 l0 143 70
0 70 0 74 -147 74 -148 46 0 c25 0 46 3 46 8 0 4 -34 71 -74 150 l-75 142 48
27 c39 21 55 38 76 83 48 97 23 199 -64 260 l-43 30 -169 3 -169 4 0 -350z
m342 240 c30 -30 33 -37 33 -97 0 -59 -3 -67 -31 -96 -36 -36 -83 -48 -186
-49 l-68 0 0 141 0 141 110 -4 c109 -3 110 -3 142 -36z"/>
<path d="M3730 860 l0 -350 220 0 220 0 0 30 0 30 -175 0 -175 0 0 130 0 130
160 0 160 0 0 35 0 35 -160 0 -160 0 0 120 0 120 175 0 175 0 0 35 0 35 -220
0 -220 0 0 -350z"/>
</g>
</svg>
