<?xml version="1.0" encoding="UTF-8"?>
<svg id="a" data-name="Layer_1" xmlns="http://www.w3.org/2000/svg" viewBox="0 0 492.57 217.14">
  <defs>
    <style>
      .b {
        fill: #fff;
      }
    </style>
  </defs>
  <path class="b" d="M363.5,26.44c-.77-.49-1.81-.49-2.58,0l-41.52,26.74c-.25.16-.46.37-.62.61-3.99,6.28-8.19,12.54-12.48,18.64-9.27,13.18-19.37,26.13-30.03,38.52-.2.24-.6.25-.83.04l-43.08-39.84c-.05-.05-.09-.11-.12-.17l-14.12-36.23c-.17-.44.4-.82.83-.54l33.94,21.79c.06.04.11.09.15.14l23.41,34.74c.2.3.69.32.91.03.69-.88,1.38-1.76,2.06-2.63.12-.15.13-.35.02-.51l-22.93-34.01c-.15-.23-.35-.42-.59-.58l-41.4-26.57c-.77-.5-1.82-.5-2.59,0s-1.08,1.38-.77,2.17l17.14,43.95c.1.26.27.5.48.7l45.7,42.26c.44.41,1.05.63,1.7.6.64-.03,1.23-.31,1.62-.75,11.47-13.17,22.31-26.99,32.22-41.07,4.22-6,8.35-12.17,12.29-18.33.04-.06.09-.11.15-.15l34.17-22c.43-.27,1,.09.84.53l-13.7,36.55c-.02.06-.06.12-.12.17l-14.89,14.19c-15.31,13.84-30.74,27.94-45.88,41.89-11.42,10.53-22.98,21.26-34.36,31.91-.57.54-.75,1.31-.46,2l11.47,27.25c.32.76,1.14,1.26,2.06,1.26h22.77c.71,0,1.4-.25,1.9-.69l1.23-1.07c.21-.18.54-.18.76,0l1.45,1.23c.4.35.95.54,1.52.54h23.36c.91,0,1.74-.5,2.05-1.26l11.33-27.25c.28-.68.1-1.44-.46-1.97l-28-26.45c-.44-.41-1.17-.41-1.61,0s-1.02.95-1.49,1.39c-.4.37-.41.96,0,1.34l26.76,25.27c.14.13.18.32.11.49l-10.09,24.28c-.08.19-.28.31-.51.31h-20.35c-.14,0-.28-.05-.38-.14l-.53-.46c-.22-.19-.22-.5,0-.68l8.01-6.89c.63-.55.83-1.38.49-2.1-.33-.73-1.14-1.21-2.02-1.21h-.01l-20.16.02c-.9,0-1.7.48-2.03,1.21-.34.72-.13,1.56.51,2.1l8.12,6.89c.22.19.22.5,0,.68l-.48.42c-.1.09-.24.14-.38.14h-19.97c-.23,0-.43-.12-.51-.31l-10.23-24.28c-.07-.17-.03-.36.11-.49,11.01-10.28,22.16-20.64,33.19-30.81,15.12-13.94,30.55-28.02,45.88-41.89l15.33-14.62c.22-.2.38-.44.47-.7l16.56-44.16c.3-.8-.02-1.67-.79-2.17ZM284.47,178.27h6.71c.49,0,.73.51.38.81l-3.33,2.87c-.21.18-.54.18-.76,0l-3.37-2.86c-.35-.3-.11-.82.38-.82Z"/>
  <g>
    <path class="b" d="M68.6,177.25v-50.27c0-.3-.24-.54-.54-.54h-12.39c-.3,0-.54.24-.54.54v62.18c0,.3.24.54.54.54h41.49c.3,0,.54-.24.54-.54v-10.83c0-.3-.24-.54-.54-.54h-28.02c-.3,0-.54-.24-.54-.54Z"/>
    <path class="b" d="M144.81,126.44c-.3,0-.54.24-.54.54v36.26c0,4.82-1.08,8.74-3.22,11.77-2.14,3.02-5.81,4.54-11.03,4.54-5.48,0-9.33-1.52-11.54-4.54-2.21-3.03-3.31-7.28-3.31-12.74v-35.29c0-.3-.24-.54-.54-.54h-12.39c-.3,0-.54.24-.54.54v36.95c0,5.21.93,9.84,2.78,13.91,1.86,4.07,4.83,7.29,8.93,9.66,4.11,2.38,9.34,3.57,15.72,3.57,5.6,0,10.53-.93,14.79-2.78,4.27-1.86,7.63-4.82,10.11-8.89,2.47-4.07,3.71-9.32,3.71-15.77v-36.65c0-.3-.24-.54-.54-.54h-12.39Z"/>
    <path class="b" d="M224.94,126.44c-.2,0-.39.11-.48.29l-14.53,27.43c-2.34,4.52-4.01,8.2-5.03,11.04-.17.48-.83.49-1.01.01-.5-1.34-1.11-2.83-1.82-4.46-.97-2.24-2.02-4.44-3.12-6.59l-14.3-27.43c-.09-.18-.28-.29-.48-.29h-13.39c-.3,0-.54.24-.54.54v62.18c0,.3.24.54.54.54h12.4c.3,0,.54-.24.54-.54v-35.98c0-.59.81-.75,1.04-.21.83,1.93,1.92,4.22,3.27,6.87l11.04,21.76c.09.18.28.3.48.3h10.02c.21,0,.39-.12.49-.3l10.84-21.76c1.35-2.61,2.44-4.89,3.27-6.83.23-.55,1.04-.38,1.04.21v35.94c0,.3.24.54.54.54h12.39c.3,0,.54-.24.54-.54v-62.18c0-.3-.24-.54-.54-.54h-13.19Z"/>
    <path class="b" d="M369.6,165.38c-.2-.29-.07-.68.25-.81,3.97-1.57,7.01-3.88,9.11-6.93,2.21-3.22,3.32-7.04,3.32-11.47,0-3.78-.91-7.14-2.73-10.11-1.83-2.96-4.61-5.3-8.35-7.03-3.74-1.72-8.41-2.58-14.01-2.58h-20.65c-.3,0-.54.24-.54.54v62.18c0,.3.24.54.54.54h12.4c.3,0,.54-.24.54-.54v-21.96c0-.3.24-.54.54-.54h4.5c.18,0,.35.09.45.23l15.56,22.57c.1.15.27.23.45.23h15.22v-.78l-16.59-23.55ZM364.79,153.97c-2.16,1.5-5.24,2.24-9.23,2.24h-5.54c-.3,0-.54-.24-.54-.54v-17.56c0-.3.24-.54.54-.54h7.04c3.45,0,6.15.75,8.08,2.24,1.92,1.5,2.89,3.75,2.89,6.74,0,3.45-1.08,5.92-3.24,7.42Z"/>
    <path class="b" d="M408.15,177.84v-14.25c0-.3.24-.54.54-.54h22.3c.27,0,.5-.2.54-.47l1.44-10.05c.05-.33-.21-.62-.54-.62h-23.73c-.3,0-.54-.24-.54-.54v-13.18c0-.3.24-.54.54-.54h27.72c.3,0,.54-.24.54-.54v-10.14c0-.3-.24-.54-.54-.54h-41.19c-.3,0-.54.24-.54.54v62.18c0,.3.24.54.54.54h41.68c.3,0,.54-.24.54-.54v-10.24c0-.3-.24-.54-.54-.54h-28.21c-.3,0-.54-.24-.54-.54Z"/>
  </g>
  <path class="b" d="M279.22,88.19c-.89.93-1.79,1.85-2.68,2.78-16.13-9.17-32.26-18.33-48.38-27.5-4.42-11.13-8.85-22.26-13.27-33.39,13.27,8.13,26.54,16.26,39.81,24.39,8.17,11.24,16.35,22.48,24.52,33.72Z"/>
  <path class="b" d="M277.3,115.94c24.4-19.43,48.8-38.86,73.21-58.29,3.49-9.2,6.98-18.4,10.48-27.61-13.54,8.12-27.09,16.24-40.63,24.36-14.35,20.51-28.7,41.02-43.05,61.53Z"/>
  <path class="b" d="M363.5,26.44c-.77-.49-1.81-.49-2.58,0l-41.52,26.74c-.25.16-.46.37-.62.61-3.99,6.28-8.19,12.54-12.48,18.64-9.27,13.18-19.37,26.13-30.03,38.52-.2.24-.6.25-.83.04l-43.08-39.84c-.05-.05-.09-.11-.12-.17l-14.12-36.23c-.17-.44.4-.82.83-.54l33.94,21.79c.06.04.11.09.15.14l23.41,34.74c.2.3.69.32.91.03.69-.88,1.38-1.76,2.06-2.63.12-.15.13-.35.02-.51l-22.93-34.01c-.15-.23-.35-.42-.59-.58l-41.4-26.57c-.77-.5-1.82-.5-2.59,0s-1.08,1.38-.77,2.17l17.14,43.95c.1.26.27.5.48.7l45.7,42.26c.44.41,1.05.63,1.7.6.64-.03,1.23-.31,1.62-.75,11.47-13.17,22.31-26.99,32.22-41.07,4.22-6,8.35-12.17,12.29-18.33.04-.06.09-.11.15-.15l34.17-22c.43-.27,1,.09.84.53l-13.7,36.55c-.02.06-.06.12-.12.17l-14.89,14.19c-15.31,13.84-30.74,27.94-45.88,41.89-11.42,10.53-22.98,21.26-34.36,31.91-.57.54-.75,1.31-.46,2l11.47,27.25c.32.76,1.14,1.26,2.06,1.26h22.77c.71,0,1.4-.25,1.9-.69l1.23-1.07c.21-.18.54-.18.76,0l1.45,1.23c.4.35.95.54,1.52.54h23.36c.91,0,1.74-.5,2.05-1.26l11.33-27.25c.28-.68.1-1.44-.46-1.97l-28-26.45c-.44-.41-1.17-.41-1.61,0s-1.02.95-1.49,1.39c-.4.37-.41.96,0,1.34l26.76,25.27c.14.13.18.32.11.49l-10.09,24.28c-.08.19-.28.31-.51.31h-20.35c-.14,0-.28-.05-.38-.14l-.53-.46c-.22-.19-.22-.5,0-.68l8.01-6.89c.63-.55.83-1.38.49-2.1-.33-.73-1.14-1.21-2.02-1.21h-.01l-20.16.02c-.9,0-1.7.48-2.03,1.21-.34.72-.13,1.56.51,2.1l8.12,6.89c.22.19.22.5,0,.68l-.48.42c-.1.09-.24.14-.38.14h-19.97c-.23,0-.43-.12-.51-.31l-10.23-24.28c-.07-.17-.03-.36.11-.49,11.01-10.28,22.16-20.64,33.19-30.81,15.12-13.94,30.55-28.02,45.88-41.89l15.33-14.62c.22-.2.38-.44.47-.7l16.56-44.16c.3-.8-.02-1.67-.79-2.17ZM284.47,178.27h6.71c.49,0,.73.51.38.81l-3.33,2.87c-.21.18-.54.18-.76,0l-3.37-2.86c-.35-.3-.11-.82.38-.82Z"/>
  <g>
    <path class="b" d="M68.6,177.25v-50.27c0-.3-.24-.54-.54-.54h-12.39c-.3,0-.54.24-.54.54v62.18c0,.3.24.54.54.54h41.49c.3,0,.54-.24.54-.54v-10.83c0-.3-.24-.54-.54-.54h-28.02c-.3,0-.54-.24-.54-.54Z"/>
    <path class="b" d="M144.81,126.44c-.3,0-.54.24-.54.54v36.26c0,4.82-1.08,8.74-3.22,11.77-2.14,3.02-5.81,4.54-11.03,4.54-5.48,0-9.33-1.52-11.54-4.54-2.21-3.03-3.31-7.28-3.31-12.74v-35.29c0-.3-.24-.54-.54-.54h-12.39c-.3,0-.54.24-.54.54v36.95c0,5.21.93,9.84,2.78,13.91,1.86,4.07,4.83,7.29,8.93,9.66,4.11,2.38,9.34,3.57,15.72,3.57,5.6,0,10.53-.93,14.79-2.78,4.27-1.86,7.63-4.82,10.11-8.89,2.47-4.07,3.71-9.32,3.71-15.77v-36.65c0-.3-.24-.54-.54-.54h-12.39Z"/>
    <path class="b" d="M224.94,126.44c-.2,0-.39.11-.48.29l-14.53,27.43c-2.34,4.52-4.01,8.2-5.03,11.04-.17.48-.83.49-1.01.01-.5-1.34-1.11-2.83-1.82-4.46-.97-2.24-2.02-4.44-3.12-6.59l-14.3-27.43c-.09-.18-.28-.29-.48-.29h-13.39c-.3,0-.54.24-.54.54v62.18c0,.3.24.54.54.54h12.4c.3,0,.54-.24.54-.54v-35.98c0-.59.81-.75,1.04-.21.83,1.93,1.92,4.22,3.27,6.87l11.04,21.76c.09.18.28.3.48.3h10.02c.21,0,.39-.12.49-.3l10.84-21.76c1.35-2.61,2.44-4.89,3.27-6.83.23-.55,1.04-.38,1.04.21v35.94c0,.3.24.54.54.54h12.39c.3,0,.54-.24.54-.54v-62.18c0-.3-.24-.54-.54-.54h-13.19Z"/>
    <path class="b" d="M369.6,165.38c-.2-.29-.07-.68.25-.81,3.97-1.57,7.01-3.88,9.11-6.93,2.21-3.22,3.32-7.04,3.32-11.47,0-3.78-.91-7.14-2.73-10.11-1.83-2.96-4.61-5.3-8.35-7.03-3.74-1.72-8.41-2.58-14.01-2.58h-20.65c-.3,0-.54.24-.54.54v62.18c0,.3.24.54.54.54h12.4c.3,0,.54-.24.54-.54v-21.96c0-.3.24-.54.54-.54h4.5c.18,0,.35.09.45.23l15.56,22.57c.1.15.27.23.45.23h15.22v-.78l-16.59-23.55ZM364.79,153.97c-2.16,1.5-5.24,2.24-9.23,2.24h-5.54c-.3,0-.54-.24-.54-.54v-17.56c0-.3.24-.54.54-.54h7.04c3.45,0,6.15.75,8.08,2.24,1.92,1.5,2.89,3.75,2.89,6.74,0,3.45-1.08,5.92-3.24,7.42Z"/>
    <path class="b" d="M408.15,177.84v-14.25c0-.3.24-.54.54-.54h22.3c.27,0,.5-.2.54-.47l1.44-10.05c.05-.33-.21-.62-.54-.62h-23.73c-.3,0-.54-.24-.54-.54v-13.18c0-.3.24-.54.54-.54h27.72c.3,0,.54-.24.54-.54v-10.14c0-.3-.24-.54-.54-.54h-41.19c-.3,0-.54.24-.54.54v62.18c0,.3.24.54.54.54h41.68c.3,0,.54-.24.54-.54v-10.24c0-.3-.24-.54-.54-.54h-28.21c-.3,0-.54-.24-.54-.54Z"/>
  </g>
</svg>